<?xml version="1.0" standalone="no"?>
<!DOCTYPE svg PUBLIC "-//W3C//DTD SVG 20010904//EN"
 "http://www.w3.org/TR/2001/REC-SVG-20010904/DTD/svg10.dtd">
<svg version="1.0" xmlns="http://www.w3.org/2000/svg"
 width="512.000000pt" height="512.000000pt" viewBox="0 0 512.000000 512.000000"
 preserveAspectRatio="xMidYMid meet">
<metadata>
Created by potrace 1.14, written by Peter Selinger 2001-2017
</metadata>
<g transform="translate(0.000000,512.000000) scale(0.100000,-0.100000)"
fill="#000000" stroke="none">
<path d="M2405 4024 c-269 -41 -391 -76 -560 -159 -174 -86 -315 -186 -452
-324 -49 -48 -154 -173 -150 -177 1 -1 52 9 112 22 61 14 157 29 215 34 58 5
164 16 236 25 167 19 649 45 859 45 221 0 623 -25 818 -50 224 -29 308 -41
337 -47 23 -6 22 -3 -17 43 -258 308 -589 500 -983 569 -92 16 -354 28 -415
19z"/>
<path d="M2255 3403 c-159 -7 -562 -46 -725 -69 -208 -29 -312 -57 -450 -121
-97 -45 -260 -236 -260 -305 0 -9 -11 -19 -26 -22 -14 -4 -37 -19 -50 -33 -23
-25 -24 -32 -24 -154 0 -119 -1 -128 -20 -134 -49 -15 -66 -123 -30 -182 11
-18 26 -33 33 -33 17 0 27 -80 27 -206 0 -74 3 -86 26 -113 14 -17 32 -31 39
-31 8 0 24 -37 41 -91 26 -86 86 -200 136 -262 l23 -27 116 40 c206 71 339
106 604 158 300 59 556 83 865 81 382 -3 625 -33 995 -125 124 -30 444 -137
504 -169 26 -13 29 -12 54 21 55 68 159 287 169 354 2 18 10 25 26 26 12 1 31
9 42 19 18 16 20 31 20 164 l0 146 30 17 c29 17 30 19 30 93 0 74 -1 76 -30
93 l-30 17 0 133 c0 78 -5 142 -11 155 -17 33 -51 57 -80 57 -27 0 -39 16 -39
50 0 31 -59 133 -103 178 -85 88 -238 173 -337 187 -25 3 -83 13 -130 20 -47
8 -130 19 -185 25 -55 5 -163 17 -240 26 -133 15 -811 27 -1010 17z m147 -180
c85 -94 132 -147 234 -259 262 -289 453 -501 479 -531 15 -18 31 -33 35 -33 5
0 39 38 76 85 37 47 71 85 76 85 9 0 448 -547 448 -559 0 -13 -354 -25 -530
-18 -209 9 -327 29 -487 83 -178 60 -247 74 -371 74 -118 0 -219 -22 -328 -71
-132 -59 -199 -71 -352 -65 -194 7 -252 15 -252 32 0 9 -11 14 -30 14 l-30 0
0 539 c0 374 -3 540 -11 543 -6 2 8 3 30 3 24 0 43 -5 45 -12 3 -7 1 -13 -4
-13 -19 0 -10 -38 10 -43 25 -6 26 12 4 54 -8 17 -13 34 -9 37 4 4 196 7 427
7 l420 0 37 42 c20 24 39 43 43 43 4 0 22 -16 40 -37z m1282 -31 c3 -4 -54
-82 -126 -173 -71 -90 -193 -244 -270 -341 -77 -97 -145 -174 -152 -171 -6 2
-38 36 -71 75 -72 86 -205 240 -249 288 -18 19 -72 82 -121 139 -50 58 -105
121 -123 142 l-33 38 113 3 c266 7 1027 7 1032 0z m-2614 -129 c-35 -78 -68
-180 -97 -298 -25 -102 -27 -126 -27 -335 0 -243 7 -298 72 -497 14 -45 23
-86 19 -90 -12 -12 -77 28 -113 71 -66 77 -69 101 -66 471 4 437 11 496 64
580 41 63 159 176 166 157 2 -6 -6 -33 -18 -59z m3009 10 c44 -53 96 -159 111
-223 7 -30 19 -63 28 -73 21 -24 32 -178 35 -492 2 -232 0 -266 -17 -314 -23
-66 -85 -131 -140 -148 -49 -15 -60 -9 -42 25 19 39 56 163 78 267 29 133 36
412 13 547 -20 122 -45 222 -75 301 l-22 57 -70 -85 c-70 -86 -82 -95 -91 -72
-3 6 -38 53 -77 102 l-72 90 147 3 c135 2 146 4 140 20 -4 9 -10 25 -13 36 -4
16 -2 17 16 7 11 -6 34 -28 51 -48z m-240 -200 c77 -95 141 -175 141 -178 0
-3 -140 -5 -311 -5 l-310 0 28 37 c15 21 38 49 49 63 12 14 57 68 100 120 119
146 136 162 150 148 6 -7 75 -90 153 -185z m216 -253 c10 -8 14 -7 18 2 2 7 7
10 11 7 4 -4 -4 -20 -18 -36 -14 -17 -22 -33 -18 -37 4 -4 3 -6 -3 -4 -5 2
-12 -1 -14 -7 -3 -5 -13 -19 -23 -29 -10 -11 -18 -24 -18 -28 0 -5 -5 -6 -12
-2 -8 5 -9 2 -5 -10 4 -10 3 -15 -3 -11 -6 4 -16 -7 -23 -24 -7 -17 -16 -28
-20 -24 -4 3 -7 1 -7 -5 0 -7 -7 -12 -16 -12 -8 0 -12 -4 -9 -10 3 -5 -17 -38
-45 -72 -28 -35 -63 -78 -77 -95 -15 -18 -31 -33 -37 -33 -6 0 -5 4 2 9 11 6
11 13 0 37 -6 16 -19 36 -28 46 -8 9 -26 30 -39 48 l-24 31 -12 -27 c-7 -19
-14 -24 -19 -16 -4 7 -2 12 4 12 6 0 9 3 6 8 -2 4 2 16 10 27 8 10 14 15 14
10 0 -4 10 10 23 33 19 35 42 66 110 145 11 12 25 33 32 47 11 21 22 26 56 29
24 1 46 4 48 7 9 8 122 -5 136 -16z m-385 -321 c0 -5 -4 -8 -9 -4 -5 3 -12 1
-16 -5 -3 -5 -12 -10 -18 -10 -7 0 -3 7 7 15 23 18 36 19 36 4z m10 -33 c0 -2
-7 -9 -15 -16 -13 -11 -14 -10 -9 4 5 14 24 23 24 12z m32 -14 c-7 -2 -10 -13
-6 -29 5 -19 3 -24 -6 -21 -17 5 -22 39 -8 55 6 7 15 10 21 6 8 -5 7 -8 -1
-11z m-2299 -219 c-7 -2 -21 -2 -30 0 -10 3 -4 5 12 5 17 0 24 -2 18 -5z"/>
<path d="M1496 3001 c-4 -7 -5 -15 -2 -18 9 -9 19 4 14 18 -4 11 -6 11 -12 0z"/>
<path d="M3930 2500 c0 -6 7 -10 15 -10 8 0 15 2 15 4 0 2 -7 6 -15 10 -8 3
-15 1 -15 -4z"/>
<path d="M2405 1824 c-409 -25 -841 -99 -1145 -195 -36 -11 -71 -22 -78 -24
-30 -10 153 -245 279 -356 198 -176 396 -285 649 -359 135 -39 224 -52 395
-57 526 -18 1023 220 1337 639 93 124 97 110 -45 156 -268 88 -523 142 -807
172 -185 19 -472 31 -585 24z"/>
</g>
</svg>
