<svg id="visual" viewBox="0 0 900 600" width="900" height="600" xmlns="http://www.w3.org/2000/svg" xmlns:xlink="http://www.w3.org/1999/xlink" version="1.1"><rect x="0" y="0" width="900" height="600" fill="#ffffff"></rect><path d="M0 208L21.5 203.2C43 198.3 86 188.7 128.8 194.8C171.7 201 214.3 223 257.2 222.7C300 222.3 343 199.7 385.8 193.8C428.7 188 471.3 199 514.2 200.7C557 202.3 600 194.7 642.8 195C685.7 195.3 728.3 203.7 771.2 204.5C814 205.3 857 198.7 878.5 195.3L900 192L900 0L878.5 0C857 0 814 0 771.2 0C728.3 0 685.7 0 642.8 0C600 0 557 0 514.2 0C471.3 0 428.7 0 385.8 0C343 0 300 0 257.2 0C214.3 0 171.7 0 128.8 0C86 0 43 0 21.5 0L0 0Z" fill="#dfdaff"></path><path d="M0 165L21.5 170.5C43 176 86 187 128.8 188.7C171.7 190.3 214.3 182.7 257.2 178.3C300 174 343 173 385.8 177.2C428.7 181.3 471.3 190.7 514.2 190.7C557 190.7 600 181.3 642.8 179.2C685.7 177 728.3 182 771.2 185.8C814 189.7 857 192.3 878.5 193.7L900 195L900 0L878.5 0C857 0 814 0 771.2 0C728.3 0 685.7 0 642.8 0C600 0 557 0 514.2 0C471.3 0 428.7 0 385.8 0C343 0 300 0 257.2 0C214.3 0 171.7 0 128.8 0C86 0 43 0 21.5 0L0 0Z" fill="#b3ade3"></path><path d="M0 159L21.5 153.8C43 148.7 86 138.3 128.8 133.3C171.7 128.3 214.3 128.7 257.2 127.8C300 127 343 125 385.8 128.7C428.7 132.3 471.3 141.7 514.2 147.7C557 153.7 600 156.3 642.8 147.5C685.7 138.7 728.3 118.3 771.2 113.5C814 108.7 857 119.3 878.5 124.7L900 130L900 0L878.5 0C857 0 814 0 771.2 0C728.3 0 685.7 0 642.8 0C600 0 557 0 514.2 0C471.3 0 428.7 0 385.8 0C343 0 300 0 257.2 0C214.3 0 171.7 0 128.8 0C86 0 43 0 21.5 0L0 0Z" fill="#8882c7"></path><path d="M0 81L21.5 84.8C43 88.7 86 96.3 128.8 102.3C171.7 108.3 214.3 112.7 257.2 109.8C300 107 343 97 385.8 94.7C428.7 92.3 471.3 97.7 514.2 99.5C557 101.3 600 99.7 642.8 99C685.7 98.3 728.3 98.7 771.2 94.7C814 90.7 857 82.3 878.5 78.2L900 74L900 0L878.5 0C857 0 814 0 771.2 0C728.3 0 685.7 0 642.8 0C600 0 557 0 514.2 0C471.3 0 428.7 0 385.8 0C343 0 300 0 257.2 0C214.3 0 171.7 0 128.8 0C86 0 43 0 21.5 0L0 0Z" fill="#5b5aab"></path><path d="M0 59L21.5 54.7C43 50.3 86 41.7 128.8 43C171.7 44.3 214.3 55.7 257.2 61.3C300 67 343 67 385.8 63.3C428.7 59.7 471.3 52.3 514.2 47.3C557 42.3 600 39.7 642.8 38.5C685.7 37.3 728.3 37.7 771.2 42.3C814 47 857 56 878.5 60.5L900 65L900 0L878.5 0C857 0 814 0 771.2 0C728.3 0 685.7 0 642.8 0C600 0 557 0 514.2 0C471.3 0 428.7 0 385.8 0C343 0 300 0 257.2 0C214.3 0 171.7 0 128.8 0C86 0 43 0 21.5 0L0 0Z" fill="#253490"></path></svg>